<svg xmlns="http://www.w3.org/2000/svg" viewBox="0 0 300 500" width="300" height="500">
  <defs>
    <linearGradient id="body" x1="0%" y1="0%" x2="100%" y2="100%">
      <stop offset="0%" stop-color="#0a1a10"/><stop offset="50%" stop-color="#102818"/><stop offset="100%" stop-color="#050d08"/>
    </linearGradient>
    <linearGradient id="shine" x1="0%" y1="0%" x2="100%" y2="0%">
      <stop offset="0%" stop-color="rgba(212,175,55,0)"/><stop offset="35%" stop-color="rgba(212,175,55,0.1)"/><stop offset="100%" stop-color="rgba(212,175,55,0)"/>
    </linearGradient>
    <linearGradient id="gold" x1="0%" y1="0%" x2="100%" y2="0%">
      <stop offset="0%" stop-color="#D4AF37"/><stop offset="50%" stop-color="#F0E6C8"/><stop offset="100%" stop-color="#B8960C"/>
    </linearGradient>
    <filter id="glow"><feGaussianBlur stdDeviation="12"/></filter>
  </defs>
  <ellipse cx="150" cy="270" rx="55" ry="100" fill="rgba(100,200,150,0.03)" filter="url(#glow)"/>
  <rect x="133" y="55" width="34" height="24" rx="3" fill="url(#gold)" opacity="0.5"/>
  <rect x="137" y="79" width="26" height="48" rx="3" fill="url(#body)" stroke="rgba(212,175,55,0.1)" stroke-width="0.5"/>
  <rect x="135" y="128" width="30" height="4" rx="1" fill="url(#gold)" opacity="0.4"/>
  <path d="M95,140 L95,310 L205,310 L205,140 C205,95 195,138 175,138 L125,138 C105,138 95,95 95,140Z" fill="url(#body)" stroke="rgba(212,175,55,0.08)" stroke-width="0.5"/>
  <path d="M95,140 L95,310 L205,310 L205,140 C205,95 195,138 175,138 L125,138 C105,138 95,95 95,140Z" fill="url(#shine)"/>
  <rect x="120" y="175" width="60" height="80" rx="2" fill="rgba(212,175,55,0.06)" stroke="rgba(212,175,55,0.1)" stroke-width="0.5"/>
  <text x="150" y="198" text-anchor="middle" font-family="Playfair Display, serif" font-size="10" fill="rgba(212,175,55,0.5)" letter-spacing="4">NIYU</text>
  <line x1="132" y1="208" x2="168" y2="208" stroke="rgba(212,175,55,0.2)" stroke-width="0.5"/>
  <text x="150" y="224" text-anchor="middle" font-family="Cormorant Garamond, serif" font-size="8" fill="rgba(212,175,55,0.3)" letter-spacing="1" font-style="italic">Creed</text>
  <text x="150" y="245" text-anchor="middle" font-family="Playfair Display, serif" font-size="5" fill="rgba(212,175,55,0.2)" letter-spacing="2">EAU DE PARFUM</text>
</svg>
