<svg xmlns="http://www.w3.org/2000/svg" viewBox="0 0 300 500" width="300" height="500">
  <defs>
    <linearGradient id="body" x1="0%" y1="0%" x2="100%" y2="100%">
      <stop offset="0%" stop-color="#1a1400"/><stop offset="50%" stop-color="#2a2000"/><stop offset="100%" stop-color="#0d0a00"/>
    </linearGradient>
    <linearGradient id="goldAccent" x1="0%" y1="0%" x2="100%" y2="0%">
      <stop offset="0%" stop-color="#D4AF37"/><stop offset="30%" stop-color="#F0E6C8"/><stop offset="60%" stop-color="#D4AF37"/><stop offset="100%" stop-color="#B8960C"/>
    </linearGradient>
    <linearGradient id="gold" x1="0%" y1="0%" x2="100%" y2="0%">
      <stop offset="0%" stop-color="#D4AF37"/><stop offset="50%" stop-color="#F0E6C8"/><stop offset="100%" stop-color="#B8960C"/>
    </linearGradient>
    <filter id="glow"><feGaussianBlur stdDeviation="12"/></filter>
  </defs>
  <ellipse cx="150" cy="270" rx="60" ry="110" fill="rgba(212,175,55,0.05)" filter="url(#glow)"/>
  <rect x="130" y="50" width="40" height="28" rx="3" fill="url(#gold)" opacity="0.6"/>
  <rect x="134" y="78" width="32" height="45" rx="2" fill="url(#body)" stroke="rgba(212,175,55,0.15)" stroke-width="0.5"/>
  <rect x="130" y="124" width="40" height="6" rx="1" fill="url(#gold)" opacity="0.5"/>
  <rect x="128" y="133" width="44" height="2" fill="rgba(212,175,55,0.15)"/>
  <path d="M85,140 C85,65 100,138 120,138 L180,138 C200,138 215,65 215,140 C215,230 210,280 205,310 L95,310 C90,280 85,230 85,140Z" fill="url(#body)" stroke="rgba(212,175,55,0.1)" stroke-width="0.5"/>
  <path d="M85,140 C85,65 100,138 120,138 L180,138 C200,138 215,65 215,140 C215,230 210,280 205,310 L95,310 C90,280 85,230 85,140Z" fill="url(#body)" opacity="0.5"/>
  <rect x="48" y="145" width="204" height="165" rx="2" fill="url(#gold)" opacity="0.08"/>
  <rect x="50" y="147" width="200" height="161" rx="1" fill="none" stroke="rgba(212,175,55,0.2)" stroke-width="0.5"/>
  <text x="150" y="195" text-anchor="middle" font-family="Playfair Display, serif" font-size="12" fill="rgba(212,175,55,0.6)" letter-spacing="5">NIYU</text>
  <line x1="122" y1="206" x2="178" y2="206" stroke="rgba(212,175,55,0.25)" stroke-width="0.5"/>
  <text x="150" y="225" text-anchor="middle" font-family="Cormorant Garamond, serif" font-size="10" fill="rgba(212,175,55,0.4)" letter-spacing="3" font-style="italic">1 Million</text>
  <text x="150" y="248" text-anchor="middle" font-family="Playfair Display, serif" font-size="6" fill="rgba(212,175,55,0.25)" letter-spacing="4">EAU DE PARFUM</text>
  <text x="150" y="275" text-anchor="middle" font-family="Cormorant Garamond, serif" font-size="7" fill="rgba(212,175,55,0.2)" letter-spacing="2">GOLD EDITION</text>
</svg>
