<svg xmlns="http://www.w3.org/2000/svg" viewBox="0 0 300 500" width="300" height="500">
  <defs>
    <linearGradient id="body" x1="0%" y1="0%" x2="100%" y2="100%">
      <stop offset="0%" stop-color="#2a0505"/><stop offset="50%" stop-color="#3d0808"/><stop offset="100%" stop-color="#1a0202"/>
    </linearGradient>
    <linearGradient id="shine" x1="0%" y1="0%" x2="100%" y2="0%">
      <stop offset="0%" stop-color="rgba(212,175,55,0)"/><stop offset="35%" stop-color="rgba(212,175,55,0.12)"/><stop offset="100%" stop-color="rgba(212,175,55,0)"/>
    </linearGradient>
    <linearGradient id="gold" x1="0%" y1="0%" x2="100%" y2="0%">
      <stop offset="0%" stop-color="#D4AF37"/><stop offset="50%" stop-color="#F0E6C8"/><stop offset="100%" stop-color="#B8960C"/>
    </linearGradient>
    <filter id="glow"><feGaussianBlur stdDeviation="15"/></filter>
  </defs>
  <ellipse cx="150" cy="270" rx="65" ry="110" fill="rgba(220,50,50,0.03)" filter="url(#glow)"/>
  <rect x="128" y="50" width="44" height="30" rx="2" fill="url(#gold)" opacity="0.55"/>
  <rect x="134" y="80" width="32" height="45" rx="1" fill="url(#body)" stroke="rgba(212,175,55,0.1)" stroke-width="0.5"/>
  <rect x="130" y="126" width="40" height="5" fill="url(#gold)" opacity="0.45"/>
  <path d="M85,140 C85,65 100,135 120,135 L180,135 C200,135 215,65 215,140 C215,230 210,280 205,310 L95,310 C90,280 85,230 85,140Z" fill="url(#body)" stroke="rgba(212,175,55,0.08)" stroke-width="0.5"/>
  <path d="M85,140 C85,65 100,135 120,135 L180,135 C200,135 215,65 215,140 C215,230 210,280 205,310 L95,310 C90,280 85,230 85,140Z" fill="url(#shine)"/>
  <rect x="115" y="172" width="70" height="85" rx="2" fill="rgba(212,175,55,0.07)" stroke="rgba(212,175,55,0.12)" stroke-width="0.5"/>
  <text x="150" y="198" text-anchor="middle" font-family="Playfair Display, serif" font-size="11" fill="rgba(212,175,55,0.55)" letter-spacing="5">NIYU</text>
  <line x1="128" y1="208" x2="172" y2="208" stroke="rgba(212,175,55,0.2)" stroke-width="0.5"/>
  <text x="150" y="224" text-anchor="middle" font-family="Cormorant Garamond, serif" font-size="9" fill="rgba(212,175,55,0.35)" letter-spacing="3" font-style="italic">Dezire</text>
  <text x="150" y="246" text-anchor="middle" font-family="Playfair Display, serif" font-size="5" fill="rgba(212,175,55,0.2)" letter-spacing="3">EAU DE PARFUM</text>
</svg>
