<svg xmlns="http://www.w3.org/2000/svg" viewBox="0 0 300 500" width="300" height="500">
  <defs>
    <linearGradient id="body" x1="0%" y1="0%" x2="100%" y2="100%">
      <stop offset="0%" stop-color="#2a0a0a"/>
      <stop offset="50%" stop-color="#3d1212"/>
      <stop offset="100%" stop-color="#1a0505"/>
    </linearGradient>
    <linearGradient id="shine" x1="0%" y1="0%" x2="100%" y2="0%">
      <stop offset="0%" stop-color="rgba(212,175,55,0)"/>
      <stop offset="35%" stop-color="rgba(212,175,55,0.12)"/>
      <stop offset="100%" stop-color="rgba(212,175,55,0)"/>
    </linearGradient>
    <linearGradient id="gold" x1="0%" y1="0%" x2="100%" y2="0%">
      <stop offset="0%" stop-color="#D4AF37"/><stop offset="50%" stop-color="#F0E6C8"/><stop offset="100%" stop-color="#B8960C"/>
    </linearGradient>
    <filter id="glow"><feGaussianBlur stdDeviation="12"/></filter>
  </defs>
  <ellipse cx="150" cy="270" rx="60" ry="100" fill="rgba(190,40,60,0.04)" filter="url(#glow)"/>
  <rect x="133" y="60" width="34" height="22" rx="3" fill="url(#gold)" opacity="0.5"/>
  <rect x="137" y="82" width="26" height="45" rx="3" fill="url(#body)" stroke="rgba(212,175,55,0.1)" stroke-width="0.5"/>
  <rect x="135" y="128" width="30" height="4" rx="1" fill="url(#gold)" opacity="0.4"/>
  <path d="M95,145 C95,65 105,142 125,142 L175,142 C195,142 205,65 205,145 C205,230 200,280 195,300 L105,300 C100,280 95,230 95,145Z" fill="url(#body)" stroke="rgba(212,175,55,0.08)" stroke-width="0.5"/>
  <path d="M95,145 C95,65 105,142 125,142 L175,142 C195,142 205,65 205,145 C205,230 200,280 195,300 L105,300 C100,280 95,230 95,145Z" fill="url(#shine)"/>
  <rect x="118" y="170" width="64" height="75" rx="3" fill="rgba(212,175,55,0.08)" stroke="rgba(212,175,55,0.12)" stroke-width="0.5"/>
  <text x="150" y="195" text-anchor="middle" font-family="Playfair Display, serif" font-size="9" fill="rgba(212,175,55,0.5)" letter-spacing="3">NIYU</text>
  <line x1="130" y1="203" x2="170" y2="203" stroke="rgba(212,175,55,0.2)" stroke-width="0.5"/>
  <text x="150" y="216" text-anchor="middle" font-family="Cormorant Garamond, serif" font-size="7" fill="rgba(212,175,55,0.3)" letter-spacing="1" font-style="italic">Rose Oudh</text>
  <text x="150" y="235" text-anchor="middle" font-family="Playfair Display, serif" font-size="5" fill="rgba(212,175,55,0.2)" letter-spacing="2">EAU DE PARFUM</text>
  <path d="M105,300 C115,312 185,312 195,300" fill="rgba(212,175,55,0.02)" stroke="rgba(212,175,55,0.08)" stroke-width="0.5"/>
</svg>
