<svg xmlns="http://www.w3.org/2000/svg" viewBox="0 0 300 500" width="300" height="500">
  <defs>
    <linearGradient id="body" x1="0%" y1="0%" x2="100%" y2="100%">
      <stop offset="0%" stop-color="#2a0a14"/><stop offset="50%" stop-color="#3d1220"/><stop offset="100%" stop-color="#1a050a"/>
    </linearGradient>
    <linearGradient id="shine" x1="0%" y1="0%" x2="100%" y2="0%">
      <stop offset="0%" stop-color="rgba(212,175,55,0)"/><stop offset="35%" stop-color="rgba(212,175,55,0.1)"/><stop offset="100%" stop-color="rgba(212,175,55,0)"/>
    </linearGradient>
    <linearGradient id="gold" x1="0%" y1="0%" x2="100%" y2="0%">
      <stop offset="0%" stop-color="#D4AF37"/><stop offset="50%" stop-color="#F0E6C8"/><stop offset="100%" stop-color="#B8960C"/>
    </linearGradient>
    <filter id="glow"><feGaussianBlur stdDeviation="12"/></filter>
  </defs>
  <ellipse cx="150" cy="270" rx="55" ry="100" fill="rgba(220,120,160,0.03)" filter="url(#glow)"/>
  <rect x="133" y="60" width="34" height="22" rx="5" fill="url(#gold)" opacity="0.5"/>
  <rect x="136" y="82" width="28" height="42" rx="3" fill="url(#body)" stroke="rgba(212,175,55,0.1)" stroke-width="0.5"/>
  <rect x="134" y="125" width="32" height="4" rx="2" fill="url(#gold)" opacity="0.4"/>
  <path d="M95,140 C85,200 85,270 95,310 L205,310 C215,270 215,200 205,140 C195,135 185,135 175,140 L170,160 C168,168 160,170 155,165 L150,140 C145,135 135,135 130,140 L125,160 C123,168 115,170 110,165 L105,140C100,135 95,135 95,140Z" fill="url(#body)" stroke="rgba(212,175,55,0.08)" stroke-width="0.5"/>
  <path d="M95,140 C85,200 85,270 95,310 L205,310 C215,270 215,200 205,140 C195,135 185,135 175,140 L170,160 C168,168 160,170 155,165 L150,140 C145,135 135,135 130,140 L125,160 C123,168 115,170 110,165 L105,140C100,135 95,135 95,140Z" fill="url(#shine)"/>
  <rect x="122" y="175" width="56" height="80" rx="6" fill="rgba(212,175,55,0.06)" stroke="rgba(212,175,55,0.1)" stroke-width="0.5"/>
  <text x="150" y="198" text-anchor="middle" font-family="Playfair Display, serif" font-size="9" fill="rgba(212,175,55,0.45)" letter-spacing="3">NIYU</text>
  <line x1="132" y1="207" x2="168" y2="207" stroke="rgba(212,175,55,0.2)" stroke-width="0.5"/>
  <text x="150" y="222" text-anchor="middle" font-family="Cormorant Garamond, serif" font-size="7" fill="rgba(212,175,55,0.3)" letter-spacing="1" font-style="italic">Cherry Blossom</text>
  <text x="150" y="242" text-anchor="middle" font-family="Playfair Display, serif" font-size="5" fill="rgba(212,175,55,0.2)" letter-spacing="2">EAU DE PARFUM</text>
</svg>
