<svg xmlns="http://www.w3.org/2000/svg" viewBox="0 0 300 500" width="300" height="500">
  <defs>
    <linearGradient id="body" x1="0%" y1="0%" x2="100%" y2="100%">
      <stop offset="0%" stop-color="#0a1a2a"/><stop offset="50%" stop-color="#0f2840"/><stop offset="100%" stop-color="#050a14"/>
    </linearGradient>
    <linearGradient id="shine" x1="0%" y1="0%" x2="100%" y2="0%">
      <stop offset="0%" stop-color="rgba(212,175,55,0)"/><stop offset="30%" stop-color="rgba(212,175,55,0.08)"/><stop offset="100%" stop-color="rgba(212,175,55,0)"/>
    </linearGradient>
    <linearGradient id="gold" x1="0%" y1="0%" x2="100%" y2="0%">
      <stop offset="0%" stop-color="#D4AF37"/><stop offset="50%" stop-color="#F0E6C8"/><stop offset="100%" stop-color="#B8960C"/>
    </linearGradient>
    <filter id="glow"><feGaussianBlur stdDeviation="12"/></filter>
  </defs>
  <ellipse cx="150" cy="270" rx="55" ry="100" fill="rgba(100,180,220,0.03)" filter="url(#glow)"/>
  <rect x="133" y="55" width="34" height="24" rx="2" fill="url(#gold)" opacity="0.5"/>
  <rect x="137" y="79" width="26" height="48" rx="2" fill="url(#body)" stroke="rgba(212,175,55,0.1)" stroke-width="0.5"/>
  <rect x="135" y="128" width="30" height="3" rx="1" fill="url(#gold)" opacity="0.4"/>
  <path d="M90,140 C90,220 95,280 100,310 L200,310 C205,280 210,220 210,140 C210,100 205,70 200,55 L100,55 C95,70 90,100 90,140Z" fill="url(#body)" stroke="rgba(212,175,55,0.08)" stroke-width="0.5"/>
  <path d="M90,140 C90,220 95,280 100,310 L200,310 C205,280 210,220 210,140 C210,100 205,70 200,55 L100,55 C95,70 90,100 90,140Z" fill="url(#shine)"/>
  <rect x="120" y="170" width="60" height="85" rx="2" fill="rgba(212,175,55,0.06)" stroke="rgba(212,175,55,0.12)" stroke-width="0.5"/>
  <text x="150" y="196" text-anchor="middle" font-family="Playfair Display, serif" font-size="10" fill="rgba(212,175,55,0.5)" letter-spacing="4">NIYU</text>
  <line x1="132" y1="205" x2="168" y2="205" stroke="rgba(212,175,55,0.2)" stroke-width="0.5"/>
  <text x="150" y="220" text-anchor="middle" font-family="Cormorant Garamond, serif" font-size="8" fill="rgba(212,175,55,0.3)" letter-spacing="2" font-style="italic">Aqua</text>
  <text x="150" y="242" text-anchor="middle" font-family="Playfair Display, serif" font-size="5" fill="rgba(212,175,55,0.2)" letter-spacing="3">EAU DE PARFUM</text>
</svg>
