<svg xmlns="http://www.w3.org/2000/svg" viewBox="0 0 300 500" width="300" height="500">
  <defs>
    <linearGradient id="body" x1="0%" y1="0%" x2="100%" y2="100%">
      <stop offset="0%" stop-color="#1a0f05"/><stop offset="50%" stop-color="#2a1808"/><stop offset="100%" stop-color="#0d0702"/>
    </linearGradient>
    <linearGradient id="shine" x1="0%" y1="0%" x2="100%" y2="0%">
      <stop offset="0%" stop-color="rgba(212,175,55,0)"/><stop offset="35%" stop-color="rgba(212,175,55,0.1)"/><stop offset="100%" stop-color="rgba(212,175,55,0)"/>
    </linearGradient>
    <linearGradient id="gold" x1="0%" y1="0%" x2="100%" y2="0%">
      <stop offset="0%" stop-color="#D4AF37"/><stop offset="50%" stop-color="#F0E6C8"/><stop offset="100%" stop-color="#B8960C"/>
    </linearGradient>
    <filter id="glow"><feGaussianBlur stdDeviation="12"/></filter>
  </defs>
  <ellipse cx="150" cy="270" rx="60" ry="100" fill="rgba(180,120,60,0.04)" filter="url(#glow)"/>
  <rect x="133" y="55" width="34" height="25" rx="4" fill="url(#gold)" opacity="0.55"/>
  <rect x="137" y="80" width="26" height="42" rx="3" fill="url(#body)" stroke="rgba(212,175,55,0.1)" stroke-width="0.5"/>
  <rect x="135" y="123" width="30" height="5" rx="1" fill="url(#gold)" opacity="0.45"/>
  <rect x="133" y="131" width="34" height="2" fill="rgba(212,175,55,0.15)"/>
  <path d="M100,140 C100,60 110,138 128,138 L172,138 C190,138 200,60 200,140 C200,225 195,275 190,300 L110,300 C105,275 100,225 100,140Z" fill="url(#body)" stroke="rgba(212,175,55,0.08)" stroke-width="0.5"/>
  <path d="M100,140 C100,60 110,138 128,138 L172,138 C190,138 200,60 200,140 C200,225 195,275 190,300 L110,300 C105,275 100,225 100,140Z" fill="url(#shine)"/>
  <rect x="120" y="170" width="60" height="80" rx="4" fill="rgba(212,175,55,0.06)" stroke="rgba(212,175,55,0.1)" stroke-width="0.5"/>
  <text x="150" y="196" text-anchor="middle" font-family="Playfair Display, serif" font-size="10" fill="rgba(212,175,55,0.5)" letter-spacing="4">NIYU</text>
  <line x1="132" y1="205" x2="168" y2="205" stroke="rgba(212,175,55,0.2)" stroke-width="0.5"/>
  <text x="150" y="220" text-anchor="middle" font-family="Cormorant Garamond, serif" font-size="8" fill="rgba(212,175,55,0.3)" letter-spacing="1" font-style="italic">Oudh</text>
  <text x="150" y="240" text-anchor="middle" font-family="Playfair Display, serif" font-size="5" fill="rgba(212,175,55,0.2)" letter-spacing="2">PURE ATTAR</text>
</svg>
