<svg xmlns="http://www.w3.org/2000/svg" viewBox="0 0 600 400" width="600" height="400">
  <defs>
    <linearGradient id="bg" x1="0%" y1="0%" x2="0%" y2="100%">
      <stop offset="0%" stop-color="#0a0a0a"/><stop offset="100%" stop-color="#080505"/>
    </linearGradient>
    <linearGradient id="gold" x1="0%" y1="0%" x2="100%" y2="100%">
      <stop offset="0%" stop-color="#D4AF37"/><stop offset="50%" stop-color="#F0E6C8"/><stop offset="100%" stop-color="#B8960C"/>
    </linearGradient>
    <filter id="glow"><feGaussianBlur stdDeviation="15"/></filter>
  </defs>
  <rect width="600" height="400" fill="url(#bg)"/>
  <rect x="15" y="15" width="570" height="370" fill="none" stroke="rgba(212,175,55,0.06)" stroke-width="0.3"/>
  <ellipse cx="200" cy="210" rx="120" ry="160" fill="rgba(212,175,55,0.015)" filter="url(#glow)"/>
  <g transform="translate(200, 200)">
    <rect x="-15" y="-160" width="30" height="22" rx="3" fill="url(#gold)" opacity="0.45"/>
    <rect x="-12" y="-138" width="24" height="35" rx="2" fill="#1a1a1a" stroke="rgba(212,175,55,0.1)" stroke-width="0.5"/>
    <rect x="-14" y="-104" width="28" height="3" rx="1" fill="url(#gold)" opacity="0.35"/>
    <path d="M-48,-100 C-48,-160 -42,-102 -30,-102 L30,-102 C42,-102 48,-160 48,-100 C48,-10 44,50 40,85 L-40,85 C-44,50 -48,-10 -48,-100Z" fill="#1a1a1a" stroke="rgba(212,175,55,0.08)" stroke-width="0.5"/>
    <rect x="-28" y="-55" width="56" height="70" rx="2" fill="rgba(212,175,55,0.05)" stroke="rgba(212,175,55,0.1)" stroke-width="0.5"/>
    <text x="0" y="-30" text-anchor="middle" font-family="Playfair Display, serif" font-size="8" fill="rgba(212,175,55,0.4)" letter-spacing="3">NIYU</text>
    <line x1="-18" y1="-22" x2="18" y2="-22" stroke="rgba(212,175,55,0.15)" stroke-width="0.5"/>
  </g>
  <g transform="translate(420, 220)">
    <rect x="-12" y="-120" width="24" height="18" rx="3" fill="url(#gold)" opacity="0.35"/>
    <rect x="-10" y="-102" width="20" height="28" rx="2" fill="#1a1a1a" stroke="rgba(212,175,55,0.08)" stroke-width="0.5"/>
    <path d="M-38,-72 C-38,-120 -34,-74 -24,-74 L24,-74 C34,-74 38,-120 38,-72 C38,10 35,60 32,90 L-32,90 C-35,60 -38,10 -38,-72Z" fill="#1a1a1a" stroke="rgba(212,175,55,0.06)" stroke-width="0.5"/>
    <rect x="-22" y="-35" width="44" height="55" rx="2" fill="rgba(212,175,55,0.04)" stroke="rgba(212,175,55,0.08)" stroke-width="0.5"/>
    <text x="0" y="-15" text-anchor="middle" font-family="Playfair Display, serif" font-size="6" fill="rgba(212,175,55,0.3)" letter-spacing="2">NIYU</text>
  </g>
  <circle cx="160" cy="320" r="1.5" fill="rgba(212,175,55,0.08)"/>
  <circle cx="440" cy="310" r="1" fill="rgba(212,175,55,0.06)"/>
  <circle cx="300" cy="350" r="0.8" fill="rgba(212,175,55,0.05)"/>
  <text x="300" y="370" text-anchor="middle" font-family="Cormorant Garamond, serif" font-size="9" fill="rgba(212,175,55,0.12)" letter-spacing="4" font-style="italic">Luxury Lifestyle</text>
</svg>
