<svg xmlns="http://www.w3.org/2000/svg" viewBox="0 0 400 500" width="400" height="500">
  <defs>
    <linearGradient id="bg" x1="0%" y1="0%" x2="0%" y2="100%">
      <stop offset="0%" stop-color="#0a0a0a"/><stop offset="100%" stop-color="#050505"/>
    </linearGradient>
    <linearGradient id="gold" x1="0%" y1="0%" x2="100%" y2="100%">
      <stop offset="0%" stop-color="#D4AF37"/><stop offset="50%" stop-color="#F0E6C8"/><stop offset="100%" stop-color="#B8960C"/>
    </linearGradient>
    <filter id="glow"><feGaussianBlur stdDeviation="15"/></filter>
  </defs>
  <rect width="400" height="500" fill="url(#bg)"/>
  <rect x="20" y="20" width="360" height="460" fill="none" stroke="rgba(212,175,55,0.08)" stroke-width="0.3"/>
  <ellipse cx="200" cy="270" rx="80" ry="140" fill="rgba(212,175,55,0.02)" filter="url(#glow)"/>
  <g transform="translate(200, 260)">
    <rect x="-18" y="-180" width="36" height="25" rx="4" fill="url(#gold)" opacity="0.5"/>
    <rect x="-14" y="-155" width="28" height="40" rx="3" fill="#1a1a1a" stroke="rgba(212,175,55,0.1)" stroke-width="0.5"/>
    <rect x="-17" y="-116" width="34" height="4" rx="1" fill="url(#gold)" opacity="0.4"/>
    <path d="M-55,-110 C-55,-180 -48,-112 -35,-112 L35,-112 C48,-112 55,-180 55,-110 C55,-20 50,60 45,100 L-45,100 C-50,60 -55,-20 -55,-110Z" fill="#1a1a1a" stroke="rgba(212,175,55,0.08)" stroke-width="0.5"/>
    <rect x="-32" y="-60" width="64" height="85" rx="3" fill="rgba(212,175,55,0.05)" stroke="rgba(212,175,55,0.1)" stroke-width="0.5"/>
    <text x="0" y="-32" text-anchor="middle" font-family="Playfair Display, serif" font-size="9" fill="rgba(212,175,55,0.4)" letter-spacing="3">NIYU</text>
    <line x1="-20" y1="-24" x2="20" y2="-24" stroke="rgba(212,175,55,0.15)" stroke-width="0.5"/>
    <text x="0" y="12" text-anchor="middle" font-family="Cormorant Garamond, serif" font-size="6" fill="rgba(212,175,55,0.25)" letter-spacing="1" font-style="italic">Collection</text>
  </g>
  <text x="200" y="460" text-anchor="middle" font-family="Cormorant Garamond, serif" font-size="8" fill="rgba(212,175,55,0.15)" letter-spacing="3" font-style="italic">NIYU Perfumes</text>
</svg>
