<svg xmlns="http://www.w3.org/2000/svg" viewBox="0 0 600 500" width="600" height="500">
  <defs>
    <linearGradient id="bg" x1="0%" y1="0%" x2="0%" y2="100%">
      <stop offset="0%" stop-color="#0a0a0a"/><stop offset="100%" stop-color="#050505"/>
    </linearGradient>
    <linearGradient id="gold" x1="0%" y1="0%" x2="100%" y2="100%">
      <stop offset="0%" stop-color="#D4AF37"/><stop offset="50%" stop-color="#F0E6C8"/><stop offset="100%" stop-color="#B8960C"/>
    </linearGradient>
    <filter id="glow"><feGaussianBlur stdDeviation="12"/></filter>
  </defs>
  <rect width="600" height="500" fill="url(#bg)"/>
  <rect x="15" y="15" width="570" height="470" fill="none" stroke="rgba(212,175,55,0.06)" stroke-width="0.3"/>
  <ellipse cx="300" cy="260" rx="250" ry="220" fill="rgba(212,175,55,0.01)" filter="url(#glow)"/>
  <g transform="translate(130, 260)">
    <rect x="-14" y="-150" width="28" height="20" rx="3" fill="url(#gold)" opacity="0.4"/>
    <rect x="-11" y="-130" width="22" height="30" rx="2" fill="#1a1a1a" stroke="rgba(212,175,55,0.08)" stroke-width="0.5"/>
    <path d="M-42,-98 C-42,-150 -38,-100 -28,-100 L28,-100 C38,-100 42,-150 42,-98 C42,-10 38,40 35,75 L-35,75 C-38,40 -42,-10 -42,-98Z" fill="#1a1a1a" stroke="rgba(212,175,55,0.06)" stroke-width="0.5"/>
    <text x="0" y="-10" text-anchor="middle" font-family="Playfair Display, serif" font-size="5" fill="rgba(212,175,55,0.3)" letter-spacing="2">NIYU</text>
  </g>
  <g transform="translate(300, 240)">
    <rect x="-17" y="-170" width="34" height="24" rx="4" fill="url(#gold)" opacity="0.5"/>
    <rect x="-13" y="-146" width="26" height="38" rx="3" fill="#1a1a1a" stroke="rgba(212,175,55,0.1)" stroke-width="0.5"/>
    <rect x="-16" y="-109" width="32" height="4" rx="1" fill="url(#gold)" opacity="0.4"/>
    <path d="M-50,-105 C-50,-170 -45,-107 -33,-107 L33,-107 C45,-107 50,-170 50,-105 C50,-15 45,50 40,90 L-40,90 C-45,50 -50,-15 -50,-105Z" fill="#1a1a1a" stroke="rgba(212,175,55,0.08)" stroke-width="0.5"/>
    <text x="0" y="-20" text-anchor="middle" font-family="Playfair Display, serif" font-size="7" fill="rgba(212,175,55,0.35)" letter-spacing="3">NIYU</text>
    <line x1="-15" y1="-12" x2="15" y2="-12" stroke="rgba(212,175,55,0.12)" stroke-width="0.5"/>
  </g>
  <g transform="translate(460, 265)">
    <rect x="-12" y="-135" width="24" height="18" rx="3" fill="url(#gold)" opacity="0.35"/>
    <rect x="-9" y="-117" width="18" height="26" rx="2" fill="#1a1a1a" stroke="rgba(212,175,55,0.08)" stroke-width="0.5"/>
    <path d="M-36,-90 C-36,-135 -32,-91 -24,-91 L24,-91 C32,-91 36,-135 36,-90 C36,0 33,45 30,75 L-30,75 C-33,45 -36,0 -36,-90Z" fill="#1a1a1a" stroke="rgba(212,175,55,0.06)" stroke-width="0.5"/>
    <text x="0" y="-8" text-anchor="middle" font-family="Playfair Display, serif" font-size="5" fill="rgba(212,175,55,0.25)" letter-spacing="2">NIYU</text>
  </g>
  <circle cx="100" cy="450" r="1" fill="rgba(212,175,55,0.06)"/>
  <circle cx="500" cy="440" r="0.8" fill="rgba(212,175,55,0.05)"/>
  <circle cx="300" cy="420" r="1.2" fill="rgba(212,175,55,0.04)"/>
  <text x="300" y="470" text-anchor="middle" font-family="Cormorant Garamond, serif" font-size="8" fill="rgba(212,175,55,0.12)" letter-spacing="3" font-style="italic">Our Collection</text>
</svg>
